<svg height="22px" version="1.1" viewBox="0 0 18 22" width="18px" xmlns="http://www.w3.org/2000/svg" xmlns:sketch="http://www.bohemiancoding.com/sketch/ns" xmlns:xlink="http://www.w3.org/1999/xlink"><title/><desc/><defs/><g fill="none" fill-rule="evenodd" id="Page-1" stroke="none" stroke-width="1"><g fill="#000000" id="Core" transform="translate(-171.000000, -127.000000)"><g id="content-paste" transform="translate(171.000000, 127.000000)"><path d="M16,2 L11.8,2 C11.4,0.8 10.3,0 9,0 C7.7,0 6.6,0.8 6.2,2 L2,2 C0.9,2 0,2.9 0,4 L0,20 C0,21.1 0.9,22 2,22 L16,22 C17.1,22 18,21.1 18,20 L18,4 C18,2.9 17.1,2 16,2 L16,2 Z M9,2 C9.6,2 10,2.4 10,3 C10,3.6 9.6,4 9,4 C8.4,4 8,3.6 8,3 C8,2.4 8.4,2 9,2 L9,2 Z M16,20 L2,20 L2,4 L4,4 L4,7 L14,7 L14,4 L16,4 L16,20 L16,20 Z" id="Shape"/></g></g></g>
</svg>